<?xml version="1.0" encoding="UTF-8"?>
<svg xmlns="http://www.w3.org/2000/svg" width="297mm" height="420mm" viewBox="0 0 297 420">
<style>
  .cut    { fill: none; stroke: #000; stroke-width: 0.35; }
  .fold   { fill: none; stroke: #C8262E; stroke-width: 0.3; stroke-dasharray: 3 1.5; }
  .glue   { fill: none; stroke: #1C4B82; stroke-width: 0.3; stroke-dasharray: 1.5 1.5; }
  .badge text { font-family: sans-serif; font-weight: 700; font-size: 6px; fill: white; text-anchor: middle; dominant-baseline: central; }
  .label  { font-family: sans-serif; font-size: 3.2px; fill: #222; }
  .arrow  { fill: #444; }
  .title-text { font-family: sans-serif; font-weight: 700; font-size: 5.5px; }
  .sub    { font-family: sans-serif; font-size: 3.2px; fill: #444; }
  .legend-line { font-family: sans-serif; font-size: 3.4px; fill: #222; }
  .legend-num  { font-family: sans-serif; font-weight: 700; font-size: 4.5px; fill: white; text-anchor: middle; dominant-baseline: central; }
</style>
<rect width="297" height="420" fill="#FAFAF7"/>
<g transform="translate(48.50,64.50)">
<rect x="20" y="0" width="160" height="10" fill="#E1F5FE" opacity="0.6"/>
<rect x="20" y="10" width="160" height="118" fill="#E3F2FD" opacity="0.5"/>
<rect x="20" y="128" width="160" height="20" fill="#FFE0B2" opacity="0.7"/>
<rect x="20" y="148" width="160" height="118" fill="#C8E6C9" opacity="0.5"/>
<rect x="20" y="266" width="160" height="20" fill="#FFCCBC" opacity="0.7"/>
<rect x="20" y="286" width="160" height="5" fill="#D7CCC8" opacity="0.6"/>
<rect x="0" y="114" width="20" height="34" fill="#E1BEE7" opacity="0.6"/>
<rect x="0" y="148" width="20" height="118" fill="#FFCDD2" opacity="0.5"/>
<rect x="0" y="266" width="20" height="20" fill="#E1BEE7" opacity="0.6"/>
<rect x="180" y="114" width="20" height="34" fill="#E1BEE7" opacity="0.6"/>
<rect x="180" y="148" width="20" height="118" fill="#FFCDD2" opacity="0.5"/>
<rect x="180" y="266" width="20" height="20" fill="#E1BEE7" opacity="0.6"/>
<path class="cut" d="
M 20 0
L 87.0 0
A 13 5 0 0 1 113.0 0
L 180 0
L 180 114
L 200 114
L 200 286
L 180 286
L 180 291
L 20 291
L 20 286
L 0 286
L 0 114
L 20 114
L 20 0 Z"/>
<line class="fold" x1="20" y1="10" x2="180" y2="10"/>
<line class="fold" x1="20" y1="128" x2="180" y2="128"/>
<line class="fold" x1="20" y1="148" x2="180" y2="148"/>
<line class="fold" x1="20" y1="266" x2="180" y2="266"/>
<line class="fold" x1="20" y1="286" x2="180" y2="286"/>
<line class="fold" x1="20" y1="114" x2="20" y2="286"/>
<line class="fold" x1="180" y1="114" x2="180" y2="286"/>
<line class="fold" x1="0" y1="148" x2="20" y2="148"/>
<line class="fold" x1="180" y1="148" x2="200" y2="148"/>
<line class="fold" x1="0" y1="266" x2="20" y2="266"/>
<line class="fold" x1="180" y1="266" x2="200" y2="266"/>
<line class="glue" x1="0" y1="114" x2="20" y2="114"/>
<line class="glue" x1="0" y1="286" x2="20" y2="286"/>
<line class="glue" x1="180" y1="114" x2="200" y2="114"/>
<line class="glue" x1="180" y1="286" x2="200" y2="286"/>
<line class="glue" x1="20" y1="291" x2="180" y2="291"/>
<circle cx="100.0" cy="207.0" r="5.5" fill="#2E7D32" stroke="white" stroke-width="0.5"/><text class="legend-num" x="100.0" y="207.0">BASE</text>
<circle cx="100.0" cy="136.0" r="5.5" fill="#E65100" stroke="white" stroke-width="0.5"/><text class="legend-num" x="100.0" y="136.0">1</text><line x1="100.0" y1="143.0" x2="100.0" y2="158.0" stroke="#E65100" stroke-width="1.4"/><polygon points="100.0,158.0 98.00,155.00 102.00,155.00" fill="#E65100"/>
<circle cx="100.0" cy="278.0" r="5.5" fill="#E65100" stroke="white" stroke-width="0.5"/><text class="legend-num" x="100.0" y="278.0">2</text><line x1="100.0" y1="271.0" x2="100.0" y2="256.0" stroke="#E65100" stroke-width="1.4"/><polygon points="100.0,256.0 102.00,259.00 98.00,259.00" fill="#E65100"/>
<circle cx="10.0" cy="207.0" r="5.5" fill="#C62828" stroke="white" stroke-width="0.5"/><text class="legend-num" x="10.0" y="207.0">3</text><line x1="17.0" y1="207.0" x2="32.0" y2="207.0" stroke="#C62828" stroke-width="1.4"/><polygon points="32.0,207.0 29.00,209.00 29.00,205.00" fill="#C62828"/>
<circle cx="190.0" cy="207.0" r="5.5" fill="#C62828" stroke="white" stroke-width="0.5"/><text class="legend-num" x="190.0" y="207.0">4</text><line x1="183.0" y1="207.0" x2="168.0" y2="207.0" stroke="#C62828" stroke-width="1.4"/><polygon points="168.0,207.0 171.00,205.00 171.00,209.00" fill="#C62828"/>
<circle cx="10.0" cy="131.0" r="5.5" fill="#6A1B9A" stroke="white" stroke-width="0.5"/><text class="legend-num" x="10.0" y="131.0">5</text>
<circle cx="190.0" cy="131.0" r="5.5" fill="#6A1B9A" stroke="white" stroke-width="0.5"/><text class="legend-num" x="190.0" y="131.0">5</text>
<circle cx="10.0" cy="276.0" r="5.5" fill="#6A1B9A" stroke="white" stroke-width="0.5"/><text class="legend-num" x="10.0" y="276.0">6</text>
<circle cx="190.0" cy="276.0" r="5.5" fill="#6A1B9A" stroke="white" stroke-width="0.5"/><text class="legend-num" x="190.0" y="276.0">6</text>
<circle cx="100.0" cy="69.0" r="5.5" fill="#1565C0" stroke="white" stroke-width="0.5"/><text class="legend-num" x="100.0" y="69.0">7</text><line x1="100.0" y1="76.0" x2="100.0" y2="99.0" stroke="#1565C0" stroke-width="1.4"/><polygon points="100.0,99.0 98.00,96.00 102.00,96.00" fill="#1565C0"/>
<circle cx="100.0" cy="5.0" r="5.5" fill="#0277BD" stroke="white" stroke-width="0.5"/><text class="legend-num" x="100.0" y="5.0">8</text><line x1="100.0" y1="12.0" x2="100.0" y2="15.0" stroke="#0277BD" stroke-width="1.4"/><polygon points="100.0,15.0 98.00,12.00 102.00,12.00" fill="#0277BD"/>
</g>

<g transform="translate(258.5,74.5)">
  <text class="title-text" x="0" y="0">FOLD SEQUENCE</text>
  <text class="sub" x="0" y="5">Žingsnis po žingsnio</text>

  <g transform="translate(0,14)">
    <circle cx="3" cy="0" r="3.5" fill="#2E7D32"/>
    <text class="legend-num" x="3" y="0" style="font-size:3px">B</text>
    <text class="legend-line" x="10" y="1">Bottom panel - guli horizontaliai</text>
  </g>

  <g transform="translate(0,22)">
    <circle cx="3" cy="0" r="3.5" fill="#E65100"/>
    <text class="legend-num" x="3" y="0" style="font-size:3px">1</text>
    <text class="legend-line" x="10" y="1">Spine ↑ 90° (long wall)</text>
  </g>
  <g transform="translate(0,30)">
    <circle cx="3" cy="0" r="3.5" fill="#E65100"/>
    <text class="legend-num" x="3" y="0" style="font-size:3px">2</text>
    <text class="legend-line" x="10" y="1">Front wall ↑ 90° (priešais spine)</text>
  </g>

  <g transform="translate(0,40)">
    <circle cx="3" cy="0" r="3.5" fill="#C62828"/>
    <text class="legend-num" x="3" y="0" style="font-size:3px">3</text>
    <text class="legend-line" x="10" y="1">Kairė šoninė ↑ 90° (short wall)</text>
  </g>
  <g transform="translate(0,48)">
    <circle cx="3" cy="0" r="3.5" fill="#C62828"/>
    <text class="legend-num" x="3" y="0" style="font-size:3px">4</text>
    <text class="legend-line" x="10" y="1">Dešinė šoninė ↑ 90°</text>
  </g>

  <g transform="translate(0,58)">
    <circle cx="3" cy="0" r="3.5" fill="#6A1B9A"/>
    <text class="legend-num" x="3" y="0" style="font-size:3px">5</text>
    <text class="legend-line" x="10" y="1">Viršutiniai glue tabs ↺ į vidų,</text>
    <text class="legend-line" x="10" y="5">priklijuoja prie spine vidaus</text>
  </g>
  <g transform="translate(0,70)">
    <circle cx="3" cy="0" r="3.5" fill="#6A1B9A"/>
    <text class="legend-num" x="3" y="0" style="font-size:3px">6</text>
    <text class="legend-line" x="10" y="1">Apatiniai glue tabs ↺ į vidų,</text>
    <text class="legend-line" x="10" y="5">priklijuoja prie front wall vidaus</text>
  </g>

  <g transform="translate(0,82)">
    <circle cx="3" cy="0" r="3.5" fill="#1565C0"/>
    <text class="legend-num" x="3" y="0" style="font-size:3px">7</text>
    <text class="legend-line" x="10" y="1">Lid ↓ uždedam ant viršaus</text>
    <text class="legend-line" x="10" y="5">(lankstosi prie spine top)</text>
  </g>
  <g transform="translate(0,94)">
    <circle cx="3" cy="0" r="3.5" fill="#0277BD"/>
    <text class="legend-num" x="3" y="0" style="font-size:3px">8</text>
    <text class="legend-line" x="10" y="1">Tuck flap nuleidžiam į vidų</text>
    <text class="legend-line" x="10" y="5">tarp lid ir front wall</text>
  </g>

  <g transform="translate(0,110)">
    <text class="title-text" x="0" y="0" style="font-size:4.5">SPALVŲ ŽYMĖJIMAS</text>
    <rect x="0" y="3" width="6" height="3" fill="#C8E6C9"/>
    <text class="legend-line" x="9" y="6" style="font-size:3px">Bottom (back cover)</text>
    <rect x="0" y="9" width="6" height="3" fill="#FFE0B2"/>
    <text class="legend-line" x="9" y="12" style="font-size:3px">Spine (book back)</text>
    <rect x="0" y="15" width="6" height="3" fill="#E3F2FD"/>
    <text class="legend-line" x="9" y="18" style="font-size:3px">Lid (front cover)</text>
    <rect x="0" y="21" width="6" height="3" fill="#FFCCBC"/>
    <text class="legend-line" x="9" y="24" style="font-size:3px">Front wall (fore-edge)</text>
    <rect x="0" y="27" width="6" height="3" fill="#FFCDD2"/>
    <text class="legend-line" x="9" y="30" style="font-size:3px">Side walls (short walls)</text>
    <rect x="0" y="33" width="6" height="3" fill="#E1BEE7"/>
    <text class="legend-line" x="9" y="36" style="font-size:3px">Glue tabs (į vidų)</text>
    <rect x="0" y="39" width="6" height="3" fill="#E1F5FE"/>
    <text class="legend-line" x="9" y="42" style="font-size:3px">Tuck flap</text>
  </g>
</g>

</svg>